<svg xmlns="http://www.w3.org/2000/svg" xmlns:xlink="http://www.w3.org/1999/xlink" width="1378.294" height="845.07" viewBox="0 0 1378.294 845.07">
  <defs>
    <filter id="Rectangle_3" x="245.449" y="64.154" width="749.513" height="665.481" filterUnits="userSpaceOnUse">
      <feOffset dy="20" input="SourceAlpha"/>
      <feGaussianBlur stdDeviation="30" result="blur"/>
      <feFlood flood-opacity="0.149"/>
      <feComposite operator="in" in2="blur"/>
      <feComposite in="SourceGraphic"/>
    </filter>
    <linearGradient id="linear-gradient" x1="0.779" y1="1.626" x2="0.224" y2="0.5" gradientUnits="objectBoundingBox">
      <stop offset="0" stop-color="#fa6400"/>
      <stop offset="1" stop-color="#f7b500"/>
    </linearGradient>
    <linearGradient id="linear-gradient-2" x1="0.5" x2="0.5" y2="1" gradientUnits="objectBoundingBox">
      <stop offset="0" stop-color="#f7b500"/>
      <stop offset="1" stop-color="#fa6400"/>
    </linearGradient>
    <linearGradient id="linear-gradient-11" x1="0.5" y1="0" x2="0.5" y2="1" xlink:href="#linear-gradient"/>
  </defs>
  <g id="Group_37" data-name="Group 37" transform="translate(-178.445 -107.921)" style="isolation: isolate">
    <path id="Path_1" data-name="Path 1" d="M325.981,952.991,765.5,950.709l117.156-.035,38.813-.014,117.379-.034,536.258-.147s122.658-157.286-8.362-306.672c-135.844-154.886-201.9-28.746-243.654-246.766C1217.979-151.748,178.8,167.659,451.371,634.657,549.514,802.807,258.185,713.433,325.981,952.991Z" transform="translate(-70.482)" fill="none"/>
    <g id="Group_3" data-name="Group 3" transform="translate(641.343 807.37)">
      <g id="Group_1" data-name="Group 1" transform="translate(13.396)">
        <path id="Path_2" data-name="Path 2" d="M1163.077,1577.474l-2.377-1.3a5.252,5.252,0,0,1-2.082-7.121l10.919-19.941a5.252,5.252,0,0,1,7.121-2.082l3.4,1.864a1.027,1.027,0,1,1-.986,1.8l-3.4-1.864a3.2,3.2,0,0,0-4.333,1.267l-10.919,19.94a3.2,3.2,0,0,0,1.267,4.333l2.377,1.3a3.2,3.2,0,0,0,4.333-1.267l7.249-13.237a1.026,1.026,0,1,1,1.8.986l-7.249,13.238A5.251,5.251,0,0,1,1163.077,1577.474Z" transform="translate(-1157.975 -1546.386)" fill="#afcdfb"/>
      </g>
      <g id="Group_2" data-name="Group 2" transform="translate(0 2.381)">
        <path id="Path_3" data-name="Path 3" d="M1138.793,1600.93l-4.26-2.333c-3.955-2.166-5.286-7.376-2.965-11.614L1147.984,1557a1.026,1.026,0,1,1,1.8.986l-16.416,29.979c-1.777,3.245-.812,7.205,2.15,8.828l4.261,2.333c2.963,1.622,6.819.3,8.6-2.943l18.7-34.149c1.776-3.245.812-7.2-2.151-8.827a1.027,1.027,0,0,1,.986-1.8c3.956,2.166,5.286,7.377,2.965,11.614l-18.7,34.148C1147.855,1601.41,1142.749,1603.1,1138.793,1600.93Z" transform="translate(-1130.426 -1551.283)" fill="#afcdfb"/>
      </g>
    </g>
    <g id="Group_12" data-name="Group 12" transform="translate(513.893 242.075)">
      <g transform="matrix(1, 0, 0, 1, -335.45, -134.15)" filter="url(#Rectangle_3)">
        <path id="Rectangle_3-2" data-name="Rectangle 3" d="M47.874,0H521.638a47.875,47.875,0,0,1,47.875,47.875V437.607a47.874,47.874,0,0,1-47.874,47.874H47.874A47.874,47.874,0,0,1,0,437.607V47.874A47.874,47.874,0,0,1,47.874,0Z" transform="translate(335.45 134.15)" fill="#fff"/>
      </g>
      <path id="Rectangle_4" data-name="Rectangle 4" d="M35.74,0H533.772a35.74,35.74,0,0,1,35.74,35.74v18.13a0,0,0,0,1,0,0H0a0,0,0,0,1,0,0V35.74A35.74,35.74,0,0,1,35.74,0Z" fill="url(#linear-gradient)"/>
      <g id="Group_4" data-name="Group 4" transform="translate(23.031 20.171)">
        <path id="Path_4" data-name="Path 4" d="M915.682,431.74a6.44,6.44,0,1,1,6.44,6.441A6.44,6.44,0,0,1,915.682,431.74Z" transform="translate(-915.682 -425.3)" fill="#fff"/>
        <path id="Path_5" data-name="Path 5" d="M971.275,431.74a6.441,6.441,0,1,1,6.441,6.441A6.441,6.441,0,0,1,971.275,431.74Z" transform="translate(-944.243 -425.3)" fill="#fff"/>
        <path id="Path_6" data-name="Path 6" d="M1026.869,431.74a6.441,6.441,0,1,1,6.441,6.441A6.441,6.441,0,0,1,1026.869,431.74Z" transform="translate(-972.805 -425.3)" fill="#fff"/>
      </g>
      <rect id="Rectangle_5" data-name="Rectangle 5" width="161.438" height="161.438" transform="translate(45.133 96.616)" fill="#eaf2ff" opacity="0.5"/>
      <path id="Path_7" data-name="Path 7" d="M1505.385,594.37H1376.974a6.1,6.1,0,0,1-6.1-6.1h0a6.1,6.1,0,0,1,6.1-6.1h128.411a6.1,6.1,0,0,1,6.1,6.1h0A6.1,6.1,0,0,1,1505.385,594.37Z" transform="translate(-1126.507 -493.721)" opacity="0.5" fill="url(#linear-gradient-2)"/>
      <path id="Path_8" data-name="Path 8" d="M1821.184,577.541H1692.773a6.1,6.1,0,0,1-6.1-6.1h0a6.1,6.1,0,0,1,6.1-6.1h128.411a6.1,6.1,0,0,1,6.1,6.1h0A6.1,6.1,0,0,1,1821.184,577.541Z" transform="translate(-1288.75 -477.075)" opacity="0.5" fill="url(#linear-gradient-2)"/>
      <g id="Group_5" data-name="Group 5" transform="translate(244.366 147.708)" opacity="0.3">
        <path id="Path_9" data-name="Path 9" d="M1530.8,695.5H1374.828a3.955,3.955,0,0,1-3.955-3.955h0a3.955,3.955,0,0,1,3.955-3.954H1530.8a3.954,3.954,0,0,1,3.955,3.954h0A3.954,3.954,0,0,1,1530.8,695.5Z" transform="translate(-1370.873 -687.589)" fill="rgba(65,54,241,0.57)"/>
        <path id="Path_10" data-name="Path 10" d="M1774.046,695.5h-41.174a3.955,3.955,0,0,1-3.955-3.955h0a3.955,3.955,0,0,1,3.955-3.954h41.174a3.954,3.954,0,0,1,3.954,3.954h0A3.954,3.954,0,0,1,1774.046,695.5Z" transform="translate(-1554.819 -687.589)" fill="rgba(65,54,241,0.57)"/>
        <path id="Path_11" data-name="Path 11" d="M1433.679,745.936h-58.851a3.955,3.955,0,0,1-3.955-3.955h0a3.955,3.955,0,0,1,3.955-3.954h58.851a3.955,3.955,0,0,1,3.955,3.954h0A3.955,3.955,0,0,1,1433.679,745.936Z" transform="translate(-1370.873 -713.502)" fill="rgba(65,54,241,0.57)"/>
        <path id="Path_12" data-name="Path 12" d="M1606.693,745.936h-80.642a3.954,3.954,0,0,1-3.954-3.955h0a3.954,3.954,0,0,1,3.954-3.954h80.642a3.954,3.954,0,0,1,3.954,3.954h0A3.954,3.954,0,0,1,1606.693,745.936Z" transform="translate(-1448.565 -713.502)" fill="rgba(65,54,241,0.57)"/>
        <path id="Path_13" data-name="Path 13" d="M1774.046,745.936h-41.174a3.955,3.955,0,0,1-3.955-3.955h0a3.955,3.955,0,0,1,3.955-3.954h41.174a3.954,3.954,0,0,1,3.954,3.954h0A3.954,3.954,0,0,1,1774.046,745.936Z" transform="translate(-1554.819 -713.502)" fill="rgba(65,54,241,0.57)"/>
        <path id="Path_14" data-name="Path 14" d="M1454.683,789.548h-79.855a3.955,3.955,0,0,1-3.955-3.955h0a3.955,3.955,0,0,1,3.955-3.954h79.855a3.954,3.954,0,0,1,3.954,3.954h0A3.954,3.954,0,0,1,1454.683,789.548Z" transform="translate(-1370.873 -735.907)" fill="rgba(65,54,241,0.57)"/>
        <path id="Path_15" data-name="Path 15" d="M1714.671,789.548h-130.6a3.954,3.954,0,0,1-3.955-3.955h0a3.954,3.954,0,0,1,3.955-3.954h130.6a3.954,3.954,0,0,1,3.954,3.954h0A3.954,3.954,0,0,1,1714.671,789.548Z" transform="translate(-1478.37 -735.907)" fill="rgba(65,54,241,0.57)"/>
      </g>
      <g id="Group_6" data-name="Group 6" transform="translate(244.366 225.62)" opacity="0.3">
        <path id="Path_16" data-name="Path 16" d="M1530.8,855.729H1374.828a3.955,3.955,0,0,1-3.955-3.954h0a3.955,3.955,0,0,1,3.955-3.955H1530.8a3.954,3.954,0,0,1,3.955,3.955h0A3.954,3.954,0,0,1,1530.8,855.729Z" transform="translate(-1370.873 -847.82)" fill="rgba(65,54,241,0.57)"/>
        <path id="Path_17" data-name="Path 17" d="M1774.046,855.729h-41.174a3.955,3.955,0,0,1-3.955-3.954h0a3.955,3.955,0,0,1,3.955-3.955h41.174a3.954,3.954,0,0,1,3.954,3.955h0A3.954,3.954,0,0,1,1774.046,855.729Z" transform="translate(-1554.819 -847.82)" fill="rgba(65,54,241,0.57)"/>
        <path id="Path_18" data-name="Path 18" d="M1433.679,906.167h-58.851a3.955,3.955,0,0,1-3.955-3.954h0a3.955,3.955,0,0,1,3.955-3.955h58.851a3.955,3.955,0,0,1,3.955,3.955h0A3.954,3.954,0,0,1,1433.679,906.167Z" transform="translate(-1370.873 -873.733)" fill="rgba(65,54,241,0.57)"/>
        <path id="Path_19" data-name="Path 19" d="M1606.693,906.167h-80.642a3.954,3.954,0,0,1-3.954-3.954h0a3.954,3.954,0,0,1,3.954-3.955h80.642a3.954,3.954,0,0,1,3.954,3.955h0A3.954,3.954,0,0,1,1606.693,906.167Z" transform="translate(-1448.565 -873.733)" fill="rgba(65,54,241,0.57)"/>
      </g>
      <g id="Group_7" data-name="Group 7" transform="translate(72.472 120.681)">
        <path id="Path_20" data-name="Path 20" d="M1062.406,632.006h16.672l45.044,103.1H1105.11L1094.726,710.4h-48.408l-10.53,24.715h-18.427Zm25.74,62.448-17.7-40.949-17.55,40.949Z" transform="translate(-1017.361 -632.006)" fill="url(#linear-gradient-2)"/>
      </g>
      <g id="Group_8" data-name="Group 8" transform="translate(45.133 290.573)">
        <rect id="Rectangle_6" data-name="Rectangle 6" width="90.182" height="17.41" fill="#f99746"/>
        <rect id="Rectangle_7" data-name="Rectangle 7" width="90.182" height="17.41" transform="translate(0 17.41)" fill="#ed7d2b"/>
        <rect id="Rectangle_8" data-name="Rectangle 8" width="90.182" height="17.409" transform="translate(0 34.82)" fill="#f7b500"/>
      </g>
      <g id="Group_9" data-name="Group 9" transform="translate(148.381 292.911)">
        <path id="Path_21" data-name="Path 21" d="M1226.852,993.727h-49.619a3.76,3.76,0,0,1-3.76-3.76h0a3.759,3.759,0,0,1,3.76-3.759h49.619a3.759,3.759,0,0,1,3.76,3.759h0A3.76,3.76,0,0,1,1226.852,993.727Z" transform="translate(-1173.474 -986.208)" fill="url(#linear-gradient-2)"/>
        <path id="Path_22" data-name="Path 22" d="M1210.136,1020.981h-32.9a3.76,3.76,0,0,1-3.76-3.76h0a3.759,3.759,0,0,1,3.76-3.759h32.9a3.759,3.759,0,0,1,3.76,3.759h0A3.76,3.76,0,0,1,1210.136,1020.981Z" transform="translate(-1173.474 -1000.21)" fill="url(#linear-gradient-2)"/>
      </g>
      <g id="Group_10" data-name="Group 10" transform="translate(45.133 380.588)">
        <rect id="Rectangle_9" data-name="Rectangle 9" width="90.182" height="35.573" fill="#f99746"/>
        <rect id="Rectangle_10" data-name="Rectangle 10" width="90.182" height="25.442" transform="translate(0 26.788)" fill="#b5453c"/>
        <path id="Path_23" data-name="Path 23" d="M961.137,1166.523l32.352,27.175-32.352,25.055Z" transform="translate(-961.137 -1166.523)" fill="#f7b500"/>
      </g>
      <g id="Group_11" data-name="Group 11" transform="translate(148.381 382.926)">
        <path id="Path_24" data-name="Path 24" d="M1226.852,1178.85h-49.619a3.76,3.76,0,0,1-3.76-3.759h0a3.759,3.759,0,0,1,3.76-3.76h49.619a3.759,3.759,0,0,1,3.76,3.76h0A3.759,3.759,0,0,1,1226.852,1178.85Z" transform="translate(-1173.474 -1171.331)" fill="url(#linear-gradient-2)"/>
        <path id="Path_25" data-name="Path 25" d="M1210.136,1206.1h-32.9a3.759,3.759,0,0,1-3.76-3.759h0a3.759,3.759,0,0,1,3.76-3.759h32.9a3.76,3.76,0,0,1,3.76,3.759h0A3.759,3.759,0,0,1,1210.136,1206.1Z" transform="translate(-1173.474 -1185.333)" fill="url(#linear-gradient-2)"/>
      </g>
    </g>
    <g id="Group_14" data-name="Group 14" transform="translate(916.704 183.724)">
      <path id="Path_26" data-name="Path 26" d="M1915.646,419.615s2.347,27.992-4.031,27.568-18.969-12.747-44.38-10.743-56.5,7.564-75.294-25.693,24.036-42.829,24.036-42.829l99.669,51.7Z" transform="translate(-1743.194 -317.298)" fill="#233862"/>
      <path id="Path_27" data-name="Path 27" d="M1815.161,364.081l128.041,10.53,2.662-5.7L1823.108,278.3l-124-14.486-2.383,5.1,118.435,95.169Z" transform="translate(-1696.725 -263.815)" fill="#2b478b"/>
      <g id="Group_13" data-name="Group 13" transform="translate(192.414 193.095)">
        <path id="Path_28" data-name="Path 28" d="M2109.208,664.527a4.964,4.964,0,1,0-3.407,6.139,4.967,4.967,0,0,0,3.407-6.139Z" transform="translate(-2096.052 -660.928)" fill="#f99746"/>
        <path id="Path_29" data-name="Path 29" d="M2101.327,671.162c5.136-.4,6.336,46.329,6.336,46.329s-3.348,1.574-4.994,1.2-2.487-6.681-2.487-6.681l-.158,6.616s-5.633.2-7.585-1.175c0,0,.765-45.661,8.889-46.294Z" transform="translate(-2092.438 -666.185)" fill="#f99746"/>
      </g>
      <path id="Path_30" data-name="Path 30" d="M2039.279,512.667l-.928-102.091-.663-.495-66.881-49.475-2.4,3.252,66.215,48.98,1.5,99.652Z" transform="translate(-1836.302 -313.542)" fill="#f99746"/>
    </g>
    <g id="Group_25" data-name="Group 25" transform="translate(839.03 635.72)">
      <g id="Group_16" data-name="Group 16" transform="translate(70.644 121.907)">
        <g id="Group_15" data-name="Group 15">
          <path id="Rectangle_11" data-name="Rectangle 11" d="M0,0H270.69a52.837,52.837,0,0,1,52.837,52.837v0a54.035,54.035,0,0,1-54.035,54.035H0a0,0,0,0,1,0,0V0A0,0,0,0,1,0,0Z" transform="translate(15.009 0.001)" fill="#fcecdb"/>
          <path id="Path_31" data-name="Path 31" d="M2262.1,1488.058v16.078a49.047,49.047,0,0,1-5.932,23.552c-7.58,13.916-21.677,23.269-37.816,23.269H1688.613a6.577,6.577,0,0,1-6.345-6.786v-2.407a6.577,6.577,0,0,1,6.345-6.786h322.924a44.254,44.254,0,0,0,4.532-7.289,45.905,45.905,0,0,0,4.733-20.432v-20.438a45.453,45.453,0,0,0-1.308-10.876,43.856,43.856,0,0,0-7.488-15.869H1688.613a6.579,6.579,0,0,1-6.345-6.792v-2.4a6.579,6.579,0,0,1,6.345-6.792h532.406c18.761,0,34.586,13.462,39.5,31.855A46.739,46.739,0,0,1,2262.1,1488.058Z" transform="translate(-1682.268 -1444.086)" fill="url(#linear-gradient-2)"/>
          <path id="Path_32" data-name="Path 32" d="M2260.516,1475.941H2019.5a43.856,43.856,0,0,0-7.488-15.869H1688.613a6.579,6.579,0,0,1-6.345-6.792v-2.4a6.579,6.579,0,0,1,6.345-6.792h532.406C2239.78,1444.086,2255.6,1457.548,2260.516,1475.941Z" transform="translate(-1682.268 -1444.086)" fill="#f7b500"/>
        </g>
        <path id="Path_33" data-name="Path 33" d="M1713.136,1553.983l39.224,1.8-39.224,1.082Z" transform="translate(-1698.126 -1500.546)" fill="#f4d2b8"/>
        <path id="Path_34" data-name="Path 34" d="M1713.136,1588.469l93.316,1.8-93.316,1.082Z" transform="translate(-1698.126 -1518.263)" fill="#f4d2b8"/>
      </g>
      <g id="Group_20" data-name="Group 20" transform="translate(4.66 228.556)">
        <g id="Group_18" data-name="Group 18" transform="translate(0 0)">
          <g id="Group_17" data-name="Group 17">
            <path id="Rectangle_12" data-name="Rectangle 12" d="M0,0H273.147a42.871,42.871,0,0,1,42.871,42.871v0a40.257,40.257,0,0,1-40.257,40.257H0a0,0,0,0,1,0,0V0A0,0,0,0,1,0,0Z" transform="translate(316.018 83.128) rotate(180)" fill="#f99746"/>
            <path id="Rectangle_13" data-name="Rectangle 13" d="M0,0H311.625a42.03,42.03,0,0,1,42.03,42.03v0a41.1,41.1,0,0,1-41.1,41.1H0a0,0,0,0,1,0,0V0A0,0,0,0,1,0,0Z" transform="translate(617.42 83.128) rotate(180)" fill="#fcecdb"/>
            <rect id="Rectangle_14" data-name="Rectangle 14" width="396.636" height="12.433" rx="6.216" transform="translate(633.824 83.128) rotate(180)" fill="#f99746"/>
            <rect id="Rectangle_15" data-name="Rectangle 15" width="396.636" height="12.433" rx="6.216" transform="translate(633.824 12.433) rotate(180)" fill="#f99746"/>
          </g>
          <path id="Path_35" data-name="Path 35" d="M2771.031,1748.9l-42.877,1.4,42.877.842Z" transform="translate(-2153.611 -1707.331)" fill="#f4d2b8"/>
          <path id="Path_36" data-name="Path 36" d="M2708.557,1709.552l-102.006,1.4,102.006.841Z" transform="translate(-2091.137 -1687.118)" fill="#f4d2b8"/>
        </g>
        <g id="Group_19" data-name="Group 19" transform="translate(516.464 23.552)">
          <path id="Path_37" data-name="Path 37" d="M2608.711,1711.853a19.3,19.3,0,0,1,5.818,9.443,15.439,15.439,0,0,1,.453,3.284c.241,7.8,0,25.454,0,25.454l12.906-8.826,12.872,8.826v-23.927c0-4.524-1.1-8.925-3.156-11.807-.994-1.4-2.2-2.447-3.565-2.447Z" transform="translate(-2608.711 -1711.853)" fill="#f7b500"/>
          <path id="Path_38" data-name="Path 38" d="M2608.711,1711.853a19.3,19.3,0,0,1,5.818,9.443l25.863.35s-1.015-8.406-6.352-9.792Z" transform="translate(-2608.711 -1711.853)" fill="#fa6400"/>
        </g>
      </g>
      <g id="Group_24" data-name="Group 24">
        <g id="Group_22" data-name="Group 22">
          <g id="Group_21" data-name="Group 21">
            <path id="Rectangle_16" data-name="Rectangle 16" d="M0,0H256.048A60.382,60.382,0,0,1,316.43,60.382v0a61.751,61.751,0,0,1-61.751,61.751H0a0,0,0,0,1,0,0V0A0,0,0,0,1,0,0Z" transform="translate(14.678)" fill="#fcecdb"/>
            <path id="Path_39" data-name="Path 39" d="M1868.247,1240.767v26.285c-.067,11.226-5.27,20.966-12.917,26.174a22.57,22.57,0,0,1-12.737,4.016h-299.26c-3.507,0-6.35,3.4-6.35,7.584v3.1c0,4.188,2.844,7.585,6.35,7.585H2060.31c14.836,0,27.943-8.807,35.861-22.287a59.231,59.231,0,0,0,7.924-30.006V1242.48a56.852,56.852,0,0,0-4.083-21.353c-6.648-16.422-20.728-27.746-37.028-27.746H1543.333c-3.507,0-6.35,3.39-6.35,7.578v3.1c0,4.188,2.844,7.584,6.35,7.584h300.175c7.173,0,13.667,3.648,18.2,9.482A32.308,32.308,0,0,1,1868.247,1240.767Z" transform="translate(-1536.983 -1193.378)" fill="url(#linear-gradient-2)"/>
            <path id="Path_40" data-name="Path 40" d="M1536.983,1410.32v3.1c0,4.188,2.844,7.585,6.35,7.585H2060.31c14.836,0,27.943-8.807,35.861-22.287h-240.84a22.57,22.57,0,0,1-12.737,4.016h-299.26C1539.827,1402.735,1536.983,1406.132,1536.983,1410.32Z" transform="translate(-1536.983 -1298.871)" fill="#fa6400"/>
          </g>
          <path id="Path_41" data-name="Path 41" d="M1567.17,1318.963l38.363,2.053-38.363,1.237Z" transform="translate(-1552.492 -1257.896)" fill="#f4d2b8"/>
          <path id="Path_42" data-name="Path 42" d="M1567.17,1261.158l91.269,2.053-91.269,1.237Z" transform="translate(-1552.492 -1228.199)" fill="#f4d2b8"/>
        </g>
        <g id="Group_23" data-name="Group 23" transform="translate(60.844 34.604)">
          <path id="Path_43" data-name="Path 43" d="M1706.277,1264.541s-6.023,3.873-8.018,10.239a13.44,13.44,0,0,0-.625,3.561c-.332,8.458,0,27.6,0,27.6l-17.783-9.571-17.738,9.571V1280c0-4.906,1.522-9.678,4.348-12.8a6.888,6.888,0,0,1,4.913-2.653Z" transform="translate(-1662.113 -1264.541)" fill="#f99746"/>
          <path id="Path_44" data-name="Path 44" d="M1706.813,1264.541s-6.023,3.873-8.018,10.239l-35.637.379s1.4-9.115,8.753-10.618Z" transform="translate(-1662.65 -1264.541)" fill="#ed7d2b"/>
        </g>
      </g>
    </g>
    <g id="girl_2" data-name="girl 2" transform="translate(392.413 656.745)">
      <path id="Path_45" data-name="Path 45" d="M806.552,1422.333s55.708,24.271,65.82,23.829,72.423-18.979,72.423-18.979l-1.586,10.719s-48.087,27.656-64.9,29.225c-16.551,1.545-73.147-14.855-78.611-18.318S790.673,1425.837,806.552,1422.333Z" transform="translate(-709.208 -1332.028)" fill="#ed985f"/>
      <path id="Path_46" data-name="Path 46" d="M707.459,1237.634s-20.551-3.9-30.786,3.571c-18.541,13.54-19.537,60.219-26.486,67.173s-23.7,3.987-25.191,39.968,6.669,38.989-3.049,55.05,4.112,32.137,4.112,32.137-5.665-8.866-3.237-15.266c0,0,2.358,14.124,11.33,17.434s10.3,5.738,11.733,10.593c0,0,76.548-39.224,76.631-67.045s15.063-55.38,7.708-67.436a26.674,26.674,0,0,1,3.678,10.9s4.414-8.457-3.237-16.33,8.975-24.166,6.513-43.035C735.488,1252.389,726.4,1238.2,707.459,1237.634Z" transform="translate(-618.485 -1236.615)" fill="#233862"/>
      <path id="Path_47" data-name="Path 47" d="M766.234,1415.108a53.573,53.573,0,0,1-18.728,7.971c-28.869,6.67-39.932-17.73-44.087-34.478a24.809,24.809,0,0,1,9.781-3c2.087-.247,4.281-.41,6.1-.5,3.242-2.483,8.072-12.645,9.14-28.422l1.358.364,22.752,6.227s-1.043,7.233-1.553,14.069c-.395,5.349-.457,10.461.556,11.712,1.775.386,2.841.637,2.841.637a.069.069,0,0,0,.012.021A146.45,146.45,0,0,1,766.234,1415.108Z" transform="translate(-662.12 -1298.296)" fill="#ffb27d"/>
      <path id="Path_48" data-name="Path 48" d="M780.418,1363.66s-1.046,7.227-1.553,14.068c-12.89-1.291-18.872-13.563-21.2-20.294Z" transform="translate(-689.989 -1298.686)" fill="#ed985f"/>
      <path id="Path_49" data-name="Path 49" d="M781.422,1328.7s-30.6-1.688-29.251-20.726-1.7-32.076,17.892-31.8,22.869,7.8,23.966,14.268S789.416,1328.645,781.422,1328.7Z" transform="translate(-687.145 -1256.933)" fill="#ffb27d"/>
      <path id="Path_50" data-name="Path 50" d="M783.78,1275.643c-4.314-6.064-7.973-5.064-10.1-3.486-16.045-10.381-27.781,2.424-27.781,2.424a36.455,36.455,0,0,1-13.434,20.629s5.323,3.84,18.4,1.459c3.995-.727,7.7-3.263,10.916-6.431a71.493,71.493,0,0,1-13.345,14.106c15.847-5.99,23.537-26.881,24.312-29.093,1.746,1.809,5.161,5.712,6.026,9.36,1.176,4.957,6.248,12.706,9.18,12.575C787.958,1297.186,790.248,1284.738,783.78,1275.643Z" transform="translate(-677.044 -1252.789)" fill="#233862"/>
      <path id="Path_51" data-name="Path 51" d="M667.623,1503.957c-2.763-14.124-11.771-70.554-2.763-88.712,3.235-6.523,15.931-7.112,29.86-6.54,4.334,2.8,20.85,13.372,27.634,12.052.073-.014.2-.045.38-.089,3.195-.8,4.4-3.043,1.736-4.978a60.844,60.844,0,0,1,15.466.948c4.839.911,17.891,7.664,17.891,7.664s-6.573,11.874-16.264,15.973c1.648,14.742-.8,21.246-16.1,55.3-12.924,28.783,1.743,54.7,1.743,54.7s-76.076,61.167-76.5,30.023C650.392,1556.843,671.154,1522.009,667.623,1503.957Z" transform="translate(-635.038 -1324.94)" fill="#f9ddbf"/>
      <path id="Path_52" data-name="Path 52" d="M766.494,1660a14.144,14.144,0,0,0,10.175-6.194q.551-.824,1.176-1.771c8.66-13.109,12.029-53.256,31.507-96.025,4.745-10.412,21.775-12.285,26.419-24.057,0,0,11.43-38.151-21.877-39.276s-89.2,106.154-90.083,117.405C722.956,1620.979,701.792,1667.3,766.494,1660Z" transform="translate(-670.552 -1368.162)" fill="#dd6d22"/>
      <path id="Path_53" data-name="Path 53" d="M1037.425,1809.006H990.019s-1.772-7.561,1.34-12.706c2.755-4.552,1.7-7.146-.341-10.912a18.417,18.417,0,0,0,7.984,1.5,16.7,16.7,0,0,0,7.05-2.48c2.04,2.326,10.777,12.228,13.506,14.19C1022.657,1800.828,1036.471,1800.034,1037.425,1809.006Z" transform="translate(-809.104 -1518.047)" fill="#233862"/>
      <path id="Path_54" data-name="Path 54" d="M917.1,1502.111c2.855,21.4,14,88.945,33.665,121.9,6.34,10.624-15.972,16.58-16.092,16.549-2.993-.783-7.978-5.554-10.276-7.625-15.964-14.387-48.371-55.127-48.371-87.789,0-15.926-.28-46.341,11.3-54.071C894.457,1486.313,915.965,1493.612,917.1,1502.111Z" transform="translate(-750.796 -1366.57)" fill="#ed7d2b"/>
      <path id="Path_55" data-name="Path 55" d="M700.03,1656.55s1.757-2.445,4.82-7.089c3.646-5.522,7.68-16.388,12.575-30.318,5.142-14.623,11.242-32.614,18.865-51.333,2.352-5.778,4.851-11.626,7.508-17.466,4.745-10.412,17.8-8.973,22.44-20.745,0,0,18.119-40.805-15.188-41.931s-96.6,109.158-100.233,119.839C646.835,1619.2,627.41,1667.752,700.03,1656.55Z" transform="translate(-632.356 -1365.591)" fill="#f99746"/>
      <path id="Path_56" data-name="Path 56" d="M965.858,1809.006H918.452s-1.772-7.561,1.34-12.706c2.755-4.552,1.7-7.146-.341-10.912a18.414,18.414,0,0,0,7.984,1.5,16.7,16.7,0,0,0,7.05-2.48c2.04,2.326,10.777,12.228,13.507,14.19C951.09,1800.828,964.9,1800.034,965.858,1809.006Z" transform="translate(-772.336 -1518.047)" fill="#2b478b"/>
      <path id="Path_57" data-name="Path 57" d="M788.9,1670.451c5.142-14.624,11.242-32.614,18.865-51.333-1.991-14.182-6.285-26.588-13.506-31.59C794.255,1587.529,776.736,1641.8,788.9,1670.451Z" transform="translate(-703.827 -1416.898)" fill="#ed7d2b"/>
      <path id="Path_58" data-name="Path 58" d="M852.659,1501.491c2.855,21.4,6.875,90.462,26.539,123.417,6.34,10.624-15.972,16.58-16.093,16.549-2.993-.783-7.978-5.554-10.276-7.625-15.964-14.387-48.371-55.127-48.371-87.789,0-15.926,18.69-45.064,30.27-52.794A11.649,11.649,0,0,1,852.659,1501.491Z" transform="translate(-714.029 -1367.466)" fill="#f99746"/>
      <path id="Path_59" data-name="Path 59" d="M812.5,1360.957s-2.892-1.144-11.031-.484c0,0,.432,3.175,6.435,3.489A4.788,4.788,0,0,0,812.5,1360.957Z" transform="translate(-712.492 -1300.142)" fill="#fff"/>
      <g id="Group_27" data-name="Group 27" transform="translate(170.452 54.999)">
        <g id="Group_26" data-name="Group 26">
          <path id="Path_60" data-name="Path 60" d="M1082.366,1367.457l-9.828-17.732-21.261,59.328,12.544,13.466Z" transform="translate(-1011.285 -1349.724)" fill="#163560"/>
          <path id="Path_61" data-name="Path 61" d="M988.794,1396.578l-19.764,56.461,52.535-11.785,18.546-55.061Z" transform="translate(-969.031 -1368.46)" fill="#1c468a"/>
          <path id="Path_62" data-name="Path 62" d="M970.212,1459.655l-.921-1.61,18.7-53.431.936,1.428Z" transform="translate(-969.165 -1377.924)" fill="#efdece"/>
          <path id="Path_63" data-name="Path 63" d="M1007.752,1394.373l49.807-9.692,2.446.735-51.318,10.385Z" transform="translate(-988.924 -1367.683)" fill="#fcecdb"/>
        </g>
        <path id="Path_64" data-name="Path 64" d="M1096.827,1368.367,1086.2,1351.5l-6.776,19.046,14.956-2.911Z" transform="translate(-1025.746 -1350.635)" fill="#efdece"/>
      </g>
      <path id="Path_65" data-name="Path 65" d="M855.377,1415.829c-1.709-.328-5.374-1.71-9.084-2.731a7.615,7.615,0,0,0,2.684-3c.662-2.091,1.1-2.764-1.1-2.1s-9.928,4.2-9.928,4.2l.019.01c-4.387,1.282-8.429,7.483-8.429,7.483s-54.315,19.093-60.85,19.421c-10.109.507-77.394-24.271-77.394-24.271-15.879,3.5-12.317,23.015-6.853,26.477s53.88,21.075,82.574,21.407c14.533.168,67.4-33.81,67.4-33.81s6.18-2.824,11.035-1.941,16.11,0,18.538-3.972S858.245,1416.381,855.377,1415.829Z" transform="translate(-649.992 -1324.536)" fill="#ffb27d"/>
      <path id="Path_66" data-name="Path 66" d="M723.4,1432.9s-6.018,19.05-26.685,23.385c0,0-34.129-10.515-17.136-33.766C679.578,1422.522,696.38,1410.037,723.4,1432.9Z" transform="translate(-647.435 -1330.378)" fill="#f9ddbf"/>
      <path id="Path_67" data-name="Path 67" d="M1101.751,1417.112l0,0a5.22,5.22,0,0,0-.181-1.549s-4.869-7.7-6.463-8.016c-4.856-.959-4.856,5.435-3.827,9.56a16.767,16.767,0,0,0,4.02,7.12h0l-.193,6.026A12.889,12.889,0,0,0,1101.751,1417.112Z" transform="translate(-861.102 -1324.385)" fill="#ffb27d"/>
    </g>
    <g id="Group_28" data-name="Group 28" transform="translate(178.445 579.564)">
      <path id="Path_68" data-name="Path 68" d="M347.91,1147.239c1.941-48.018-38.307-69.352-79.459-69.352s-85.936,10.662-89.817,74.513c-2.5,41.077,19.4,66.352,82.455,66.352,21.266,0,37.793-3.354,50.451-9.335l31.519,28.007-15.489-38.713C341.292,1185.954,347.073,1167.959,347.91,1147.239Z" transform="translate(-178.445 -1077.887)" fill="rgba(247,181,0,0.17)"/>
    </g>
    <g id="Group_29" data-name="Group 29" transform="translate(1017.288 441.404)">
      <path id="Path_69" data-name="Path 69" d="M2058.51,857.153c1.774-43.9-35.02-63.4-72.643-63.4s-78.564,9.748-82.111,68.121c-2.282,37.552,17.737,60.66,75.382,60.66,19.441,0,34.55-3.066,46.123-8.535l28.816,25.6-14.161-35.391C2052.46,892.547,2057.746,876.1,2058.51,857.153Z" transform="translate(-1903.584 -793.751)" fill="url(#linear-gradient-11)"/>
    </g>
    <g id="Group_33" data-name="Group 33" transform="translate(1020.742 515.04)">
      <path id="Path_70" data-name="Path 70" d="M2197.655,1397.772c8.927,15.8,20.253,21.947,20.253,21.947l47.294.334S2190.844,1385.723,2197.655,1397.772Z" transform="translate(-2057.89 -1176.388)" fill="#233862"/>
      <g id="Group_30" data-name="Group 30">
        <path id="Path_71" data-name="Path 71" d="M2229.661,1609.7a4.373,4.373,0,0,1,.747,4.682.033.033,0,0,1-.013.023c-1.15,3.11-4.9,6.564-9.254,10.01-.556.443-1.052.845-1.483,1.219-.113.1-.226.2-.333.294-.088.076-.172.156-.257.228-4.062,3.693-2.55,4.556-9.855,12.055-8.33,8.545-14.024,8.661-15.639,7.865-1.365-.678,1.451-5.221,4.572-10.328.151-.246.3-.5.455-.745.415-.678.829-1.368,1.241-2.05,3.659-6.147,2.751-9.051,1.959-18.243-.644-7.47-11.319-41.787-11.319-41.787l15.866-2.617s4.58,27.3,9.808,31.534c2.8,2.258,5.943,2.308,8.634,3.986.19.117.377.237.559.359A20.8,20.8,0,0,1,2229.661,1609.7Z" transform="translate(-2054.432 -1266.343)" fill="#ffb27d"/>
        <path id="Path_72" data-name="Path 72" d="M2232.556,1647.228a4.372,4.372,0,0,1,.747,4.681.037.037,0,0,1-.013.023c-1.4,3.1-5.06,6.542-9.269,9.978-.55.45-1.036.864-1.468,1.25-.113.1-.227.2-.333.294-.088.076-.172.156-.257.228-4.062,3.693-2.55,4.555-9.854,12.055-8.331,8.545-14.025,8.661-15.639,7.865-1.366-.678,1.451-5.221,4.572-10.328a35.251,35.251,0,0,0,14.816-10.757c5.024-6.319,8.4-14.459,11.826-19.165.19.117.378.236.56.359A20.8,20.8,0,0,1,2232.556,1647.228Z" transform="translate(-2057.327 -1303.873)" fill="#233862"/>
        <path id="Path_73" data-name="Path 73" d="M1958.206,1593.008c-1.013,4.885-7.979,4.02-15.756,2.061s-5.941.318-17.019-.989-14.407-5.463-14.734-7.113c-.293-1.465,5.189-1.943,11.07-2.578.739-.078,1.482-.164,2.225-.25,6.64-.785,11.528-5.032,17.579-8.5,5.731-3.29,14.345-16.8,14.345-16.8l15.2,1.311s-8.065,12.062-11.188,17.309c-1.837,3.086-1.769,7.185-1.565,10.351A19.5,19.5,0,0,1,1958.206,1593.008Z" transform="translate(-1910.686 -1260.452)" fill="#ffb27d"/>
        <path id="Path_74" data-name="Path 74" d="M1942.45,1622.068c-7.777-1.958-5.941.317-17.019-.989s-14.407-5.462-14.734-7.113c-.293-1.465,5.189-1.943,11.07-2.578l.054.113a31.258,31.258,0,0,0,15.843,5.047c7.521.236,15.5-1.863,20.7-1.742a19.5,19.5,0,0,1-.154,5.2C1957.193,1624.891,1950.226,1624.026,1942.45,1622.068Z" transform="translate(-1910.686 -1287.451)" fill="#233862"/>
        <path id="Path_75" data-name="Path 75" d="M2129.656,1404.421l13.944,38.346,18.2,50.07a30.055,30.055,0,0,0,9.864-.832,42.752,42.752,0,0,0,9.567-4.574s-4.774-53.656-14.168-84.5c-2.407-7.918-5.123-14.328-8.144-17.946C2144.145,1367.266,2129.656,1404.421,2129.656,1404.421Z" transform="translate(-2023.182 -1168.674)" fill="#233862"/>
        <path id="Path_76" data-name="Path 76" d="M2070.468,1298.178c9.333-2.937,35.864,1.106,62.506,6.517l5.651-9.174,57.656-4.094s18.717,42.3,8.118,69.1c-1.558,3.938-5.357,5.577-10.54,5.624l-.006.007s-34.392.6-45.528.519c-28.658-.2-60.51-20.127-64.643-20.984-6.764-1.4-9.57,12.126-16.444,26.3s-64.119,62.548-64.119,62.548-8.746.025-12.349-1.355c-3.875-1.484-5.283-3.387-5.283-3.387S2049.421,1304.8,2070.468,1298.178Z" transform="translate(-1949.115 -1123.07)" fill="#2b478b"/>
        <path id="Path_77" data-name="Path 77" d="M2286.646,1038.285c20.44,11.443,61.9,35.159,62.121,35.009,0,0,15.26,5.874,23.982.17,14.534-9.506,22.476-35.31-3.825-57.75-13.117-11.191-22.472-13.959-23.772-31.691-.7-9.62-13.624-41.443-35.481-38.662a33.248,33.248,0,0,1-5.506.323,20.439,20.439,0,0,0-11.1,2.783C2280.653,955.737,2255.915,1033.694,2286.646,1038.285Z" transform="translate(-2096.238 -945.189)" fill="#233862"/>
        <path id="Path_78" data-name="Path 78" d="M2335.2,1083.172c-.09.058,10.072,3.607,16.9.639,6.428-2.787,11.356-13.295,11.261-13.3-2.914-.155-6.1-2.726-8.443-19.466l-1.244.437-20.923,7.362s1.465,6.707,2.4,13.09C2335.941,1077.292,2336.347,1082.423,2335.2,1083.172Z" transform="translate(-2127.526 -999.573)" fill="#ffb27d"/>
        <path id="Path_79" data-name="Path 79" d="M2332.757,1059.3s.892,4.7,2.13,11.418c12-2.073,17.06-12.311,18.793-18.781Z" transform="translate(-2127.526 -1000.034)" fill="#ed975d"/>
        <path id="Path_80" data-name="Path 80" d="M2311.035,1027.713s28.581-3.631,26.045-21.395-.554-30.2-18.909-28.629-20.926,8.85-21.521,14.985S2303.534,1028.2,2311.035,1027.713Z" transform="translate(-2108.959 -961.818)" fill="#ffb27d"/>
        <path id="Path_81" data-name="Path 81" d="M2298.966,981.275s18.168,15.881,30.592,17.239,17.159-2.6,17.159-2.6a48.544,48.544,0,0,1-11.626-15.987,8.743,8.743,0,0,0-7.171-5.2C2319.047,973.892,2302.22,973.424,2298.966,981.275Z" transform="translate(-2110.166 -960.137)" fill="#233862"/>
        <path id="Path_82" data-name="Path 82" d="M2306.825,982.265s-6.156,5.87-8.113,10.241c-1.889,4.219-2.517,14.337-1.066,18.367,0,0-9.4-18.593-3.939-27.556C2299.494,973.814,2306.825,982.265,2306.825,982.265Z" transform="translate(-2106.588 -962.458)" fill="#233862"/>
        <path id="Path_83" data-name="Path 83" d="M2287.724,1144.905c.456,57.806-.086,45.724,6.2,51.253,1.514,1.331,5.792,2.148,11.426,2.56,17.715,1.3,48.892-1.4,50.1-4.665,4.167-11.3,1.306-14.846,4.84-32.172.369-1.843.823-3.837,1.354-6.009,2.928-11.9,5.725-15.932-4.229-35.149-9.027-17.407-18.432-31.55-19.292-31.047-24.24,14.159-26.1,2.1-26.1,2.1S2287.5,1116.709,2287.724,1144.905Z" transform="translate(-2104.39 -1019.413)" fill="#f9ddbf"/>
        <path id="Path_84" data-name="Path 84" d="M2158.332,1466.787l18.2,50.07a30.054,30.054,0,0,0,9.864-.832,42.744,42.744,0,0,0,9.567-4.574s-4.774-53.656-14.168-84.5Z" transform="translate(-2037.915 -1192.694)" fill="#2b478b"/>
        <path id="Path_85" data-name="Path 85" d="M2286.487,1094s-24.868,4.036-27.86,14.709-20.6,73.422-20.6,73.422,12.611,2.358,18.486-3.434,20.679-53.976,20.679-53.976Z" transform="translate(-2078.858 -1021.643)" fill="#f9ddbf"/>
        <path id="Path_86" data-name="Path 86" d="M2323.971,1249.525c17.715,1.3,48.892-1.4,50.1-4.666,4.167-11.3,1.306-14.846,4.84-32.172l-8.379-24.132s1.225,26.815-6.73,33.81-32.462,13.381-36.346,19.245A21.557,21.557,0,0,0,2323.971,1249.525Z" transform="translate(-2123.012 -1070.219)" fill="#f2ccaa"/>
        <path id="Path_87" data-name="Path 87" d="M2333.134,1288.059s-17.458-4.017-20.291-2.485-9.767,7.134-10.644,9.095,6.292-1.448,8.62-2.055c1.507-.393,5.459,1.012,7.416,1.679,8.233,2.809,13.3,1.43,13.3,1.43Z" transform="translate(-2111.789 -1119.884)" fill="#ffb27d"/>
        <path id="Path_88" data-name="Path 88" d="M2375.279,1089.663s23.468,1.612,31.515,13.005c11.329,16.038,33.544,84.2,20.473,93.182-14.72,10.11-66.686,2.2-66.686,2.2s-1.675-8.1.761-12,41.621-9.944,43.44-11.738-22.333-35.386-22.294-40.8S2375.279,1089.663,2375.279,1089.663Z" transform="translate(-2141.532 -1019.413)" fill="#f9ddbf"/>
        <path id="Path_89" data-name="Path 89" d="M2315.086,1295.939s-3.7,4.7-4.9,5.255a3.575,3.575,0,0,1-1.979.409l2.5-4.426Z" transform="translate(-2114.912 -1125.388)" fill="#ffb27d"/>
        <path id="Path_90" data-name="Path 90" d="M2312.876,1285.942l-10.688,5.1a1.9,1.9,0,0,0,1.76.694,25.4,25.4,0,0,0,4.629-1.237Z" transform="translate(-2111.822 -1120.252)" fill="#ffb27d"/>
      </g>
      <g id="Group_32" data-name="Group 32" transform="translate(88.39 119.631)">
        <g id="Group_31" data-name="Group 31">
          <path id="Path_91" data-name="Path 91" d="M2201.627,1255.022l-84.259-.594-24.9-63.209,84.129.593Z" transform="translate(-2092.467 -1191.219)" fill="#f99746"/>
          <path id="Path_92" data-name="Path 92" d="M2141.683,1316.146l111.264.785-.017,2.456-110.277-.778Z" transform="translate(-2117.752 -1255.401)" fill="#ed7d2b"/>
        </g>
        <path id="Path_93" data-name="Path 93" d="M2187.715,1252.49a2.919,2.919,0,0,1,2.89-3.991,5.748,5.748,0,0,1,5.134,4.048,2.919,2.919,0,0,1-2.889,3.991A5.748,5.748,0,0,1,2187.715,1252.49Z" transform="translate(-2141.321 -1220.647)" fill="#fff"/>
      </g>
    </g>
    <g id="Group_34" data-name="Group 34" transform="translate(646.705 897.371)">
      <rect id="Rectangle_17" data-name="Rectangle 17" width="50.893" height="256.008" transform="translate(59.512 50.893) rotate(-89.989)" fill="#c65447"/>
      <path id="Path_94" data-name="Path 94" d="M1200.966,1782.373l-37.626-16.1-21.885-9.361,22.4-9.573,37.123-15.865s4.954,12.393,5.028,24.045C1206.122,1773.813,1200.966,1782.373,1200.966,1782.373Z" transform="translate(-1141.455 -1731.478)" fill="#fcecdb"/>
      <path id="Path_95" data-name="Path 95" d="M1820.112,1748.47l0,16.089a17.92,17.92,0,0,1-17.924,17.917l-11.842,0,.01-50.893,12.879,0A16.884,16.884,0,0,1,1820.112,1748.47Z" transform="translate(-1474.823 -1731.531)" fill="#fcecdb"/>
      <path id="Path_96" data-name="Path 96" d="M1163.855,1764.1c.932,5.143,1.742,13.021-.516,18.935l-21.885-9.361Z" transform="translate(-1141.455 -1748.24)" fill="#2b478b"/>
    </g>
    <g id="Group_36" data-name="Group 36" transform="translate(740.579 467.249)">
      <path id="Path_97" data-name="Path 97" d="M1377.042,1180.177s4.586,19.9,17.953,19.9c11.457,0,27.175-25.9,27.175-25.9Z" transform="translate(-1356.362 -1015.04)" fill="#f99746"/>
      <path id="Path_98" data-name="Path 98" d="M1583.09,1524.1l-8.589,5.9s-41.3-44.023-51.274-86.223a65.627,65.627,0,0,1-1.736-22.016s-.6-1.911-1.658-5.29l-.141-.451c-.461-1.483-1.015-3.226-1.63-5.2-2-6.376-4.753-15.1-7.887-25.037-7.218-22.862-23.729-74.423-30.783-95.87l50.705-18.346s5.76,13.134,14.036,48.831c1.275,4.659,2.552,9.812,3.745,15.425,1.353,6.358,2.614,13.311,3.665,20.822a319.639,319.639,0,0,1,3.039,42.742c.028,6.387-.128,13.01-.507,19.844-.277,5.011.467,11.689,1.864,19.285C1562.327,1473.247,1583.09,1524.1,1583.09,1524.1Z" transform="translate(-1408.944 -1065.076)" fill="#2b478b"/>
      <path id="Path_99" data-name="Path 99" d="M1704.437,1812.073h-40.994s-1.532-6.538,1.159-10.988c2.383-3.936,1.47-6.179-.295-9.436a15.94,15.94,0,0,0,6.9,1.3,14.447,14.447,0,0,0,6.1-2.144c1.764,2.011,9.319,10.574,11.679,12.27C1691.666,1805,1703.612,1804.314,1704.437,1812.073Z" transform="translate(-1503.278 -1331.835)" fill="#233862"/>
      <path id="Path_100" data-name="Path 100" d="M1551.541,1356.646l-31.849,59.377c-.461-1.483-1.015-3.226-1.63-5.2-2-6.376-4.753-15.1-7.887-25.037-7.218-22.862-23.729-74.423-30.783-95.87l50.705-18.346s5.76,13.134,14.036,48.831c1.275,4.659,2.552,9.812,3.745,15.425C1549.229,1342.182,1550.491,1349.135,1551.541,1356.646Z" transform="translate(-1408.944 -1065.076)" fill="#233862"/>
      <path id="Path_101" data-name="Path 101" d="M1476.307,1806.987s-2.837,6.961-.165,12.832h22.3s.463-5.294-7.629-11.433C1484.682,1803.737,1476.307,1806.987,1476.307,1806.987Z" transform="translate(-1406.686 -1339.582)" fill="#233862"/>
      <path id="Path_102" data-name="Path 102" d="M1497.043,861.044c.013-1.11.583-13.079,18.769-14.141,0,0-8.924,1.283-10.376,5.254,0,0,5.977-5.008,10.978-3.565s8.124,10.068,8.222,12.927-2.437,12.145-5.567,13a9.623,9.623,0,0,1-3.814.1,42.9,42.9,0,0,1,2.549,4.3c7.621,14.732,1.046,32.086-5.14,30.625-3.968-.937-6.38,5.94-6.38,5.94l-38.16-32.815S1481.492,853.221,1497.043,861.044Z" transform="translate(-1403.155 -846.903)" fill="#2c3a64"/>
      <path id="Path_103" data-name="Path 103" d="M1478.267,1027.665a46.336,46.336,0,0,0,16.2,6.892c24.964,5.768,34.532-15.331,38.125-29.815a21.458,21.458,0,0,0-8.458-2.6c-1.8-.212-3.7-.353-5.273-.431-2.8-2.147-6.98-10.935-7.9-24.579l-1.174.315-19.675,5.385s.9,6.255,1.344,12.165c.342,4.626.4,9.047-.481,10.129-1.535.333-2.456.55-2.456.55a.047.047,0,0,1-.01.019A126.673,126.673,0,0,0,1478.267,1027.665Z" transform="translate(-1408.367 -913.81)" fill="#ffb27d"/>
      <path id="Path_104" data-name="Path 104" d="M1502.6,983.175s.9,6.249,1.343,12.166c11.147-1.116,16.319-11.729,18.333-17.55Z" transform="translate(-1420.871 -914.147)" fill="#ed985f"/>
      <path id="Path_105" data-name="Path 105" d="M1484,958.4s25.664-6.595,21.311-22.514-3.972-27.491-20.542-23.954-18.079,10.479-17.919,16.145S1477.216,959.7,1484,958.4Z" transform="translate(-1402.499 -879.981)" fill="#ffb27d"/>
      <path id="Path_106" data-name="Path 106" d="M1462.349,916.023c2.635-5.872,5.907-5.641,7.975-4.661,11.856-11.512,23.971-2.633,23.971-2.633a31.524,31.524,0,0,0,14.876,15.229s-3.867,4.155-15.36,4.343c-3.511.057-7.079-1.469-10.344-3.613a61.818,61.818,0,0,0,13.7,9.712c-14.451-2.406-24.5-18.826-25.529-20.572-1.175,1.829-3.413,5.716-3.532,8.955-.161,4.4,1.558,12.9-.952,13.286C1467.153,936.071,1458.4,924.828,1462.349,916.023Z" transform="translate(-1399.663 -876.987)" fill="#2c3a64"/>
      <path id="Path_107" data-name="Path 107" d="M1453.338,1029.456s43.1-10.465,61.843,4.993l-9.366,130.622-84.294-20.365s2.371-8.265,18.535-30.244S1449.188,1060.245,1453.338,1029.456Z" transform="translate(-1379.213 -938.912)" fill="#ffb27d"/>
      <path id="Path_108" data-name="Path 108" d="M1473.58,1270.806s-.05.443-.137,1.287c-.039.362-.088.8-.142,1.313-.363,3.386-1.05,9.881-1.935,18.328-2.313,22.154-5.943,57.734-8.416,85.819-1.935,21.958-3.164,39.336-2.5,42.126,2,8.4,0,108.78,0,108.78-7.164,3.436-18.027,0-18.027,0s-19.084-90.459-16.413-103.032a43.3,43.3,0,0,0-1.786-23.306c-14.817-69-13.2-107.25-10.252-125.559a77.246,77.246,0,0,1,2.535-11.179,23.237,23.237,0,0,1,1.015-2.748C1450.205,1253.841,1473.58,1270.806,1473.58,1270.806Z" transform="translate(-1374.328 -1059.187)" fill="#2b478b"/>
      <path id="Path_109" data-name="Path 109" d="M1512.35,1072.758c-2.08,15.714-10.4,34.943-13.378,45.294,0,0,4.97,35.936.226,45.8a4.37,4.37,0,0,1-2.023,2.267c-17.576,7.656-86.028.221-88.917-21.859-1.05-8.023,26.073-36.245,27.653-39.669.656-1.416,1.355-6.008-1.824-15.523-4.508,13.9-29.386,9.9-29.386,9.9,2.92-5,10.195-39.562,18.317-55.165,6.107-11.729,22.413-13.428,22.413-13.428s6.786,10.763,23.2,9.237,19.413-11.573,19.413-11.573,14.556,1.935,19.042,5.554C1507.861,1034.224,1515.08,1052.169,1512.35,1072.758Z" transform="translate(-1370.572 -939.964)" fill="#f99746"/>
      <path id="Path_110" data-name="Path 110" d="M1576.729,1183.147s4.97,35.936.226,45.8c-12.806-6.427-22.9-23.816-20.568-43.186,1.722-14.318,4.282-17.585,11.942-25.778,5.629-6.02,18.643-6.36,17.623-3.5C1582.916,1165.02,1578.3,1177.68,1576.729,1183.147Z" transform="translate(-1448.328 -1005.059)" fill="#ed7d2b"/>
      <g id="Group_35" data-name="Group 35" transform="translate(0 122.325)">
        <path id="Path_111" data-name="Path 111" d="M1437.342,1125.757l29.35,47.086h-49.939l-27.964-46.067Z" transform="translate(-1362.398 -1112.49)" fill="#1c468a"/>
        <path id="Path_112" data-name="Path 112" d="M1516.465,1168.912l.506-1.644-27.773-44.56-.557,1.483Z" transform="translate(-1413.697 -1110.924)" fill="#efdece"/>
        <path id="Path_113" data-name="Path 113" d="M1437.9,1122.708l-47.045,1.34-2.065,1.162,48.552-1.019Z" transform="translate(-1362.398 -1110.924)" fill="#fcecdb"/>
        <path id="Path_114" data-name="Path 114" d="M1360.9,1112.759l-26.392-14.285,30.764,48.311,23.591,12.042Z" transform="translate(-1334.513 -1098.474)" fill="#163560"/>
      </g>
      <path id="Path_115" data-name="Path 115" d="M1597.959,1180.646c-2.827,1.292-10.083,9.839-12.673,10.707-11.645,3.9-61.2-6.472-61.2-6.472l1.534-8.68s48.642,1.292,53.989-.138c1.007-.271,6.263-8.493,8.284-9.673Z" transform="translate(-1431.905 -1011.04)" fill="#ffb27d"/>
      <path id="Path_116" data-name="Path 116" d="M1497.994,1182.493s-5.866-4.774-9.829-3.694-9.8,6.093-11.961,7.28-8.049,5.432-5.067,8,12.265.363,15.943-1.605,9.38-1.3,9.38-1.3Z" transform="translate(-1404.279 -1017.334)" fill="#ffb27d"/>
      <path id="Path_117" data-name="Path 117" d="M1498.37,1177.788s-7.129-.85-9.076-.811-1.418.466-.343,1.977,4.787,2.089,4.958,2.617S1498.37,1177.788,1498.37,1177.788Z" transform="translate(-1413.361 -1016.479)" fill="#ffb27d"/>
      <path id="Path_118" data-name="Path 118" d="M1569.509,1028.043s21.141,2.508,26.962,11.573c7.36,11.462,24.729,57.114,24.169,68.617,0,0-12.7,21.613-56.246,18.154,0,0-4.531-16,4.63-21.286,0,0,22.366-3.978,24.943-6.247l-18.237-33.141Z" transform="translate(-1452.039 -939.964)" fill="#f99746"/>
      <path id="Path_119" data-name="Path 119" d="M1389.025,1161.764c-.656-2.663-6.463-1-8.421.533a7.941,7.941,0,0,0-1.488,1.75c-.061-.446-.114-.872-.143-1.2-.11-1.251-1.568-3.492-1.93-1.815s-.957,8.728-.957,8.728c-.071,5.678,3.58,8.021,5.924,6.173S1389.68,1164.427,1389.025,1161.764Z" transform="translate(-1355.871 -1007.941)" fill="#ffb27d"/>
    </g>
  </g>
</svg>
